<?xml version="1.0" encoding="UTF-8" standalone="no"?>
<svg
   xmlns:dc="http://purl.org/dc/elements/1.1/"
   xmlns:cc="http://creativecommons.org/ns#"
   xmlns:rdf="http://www.w3.org/1999/02/22-rdf-syntax-ns#"
   xmlns:svg="http://www.w3.org/2000/svg"
   xmlns="http://www.w3.org/2000/svg"
   xmlns:sodipodi="http://sodipodi.sourceforge.net/DTD/sodipodi-0.dtd"
   xmlns:inkscape="http://www.inkscape.org/namespaces/inkscape"
   width="750"
   height="750"
   viewBox="0 0 750.00001 750"
   id="svg2"
   version="1.1"
   inkscape:version="0.91 r13725"
   sodipodi:docname="icon.svg">
  <defs
     id="defs4" />
  <sodipodi:namedview
     id="base"
     pagecolor="#ffffff"
     bordercolor="#666666"
     borderopacity="1.0"
     inkscape:pageopacity="0"
     inkscape:pageshadow="2"
     inkscape:zoom="0.64"
     inkscape:cx="176.04587"
     inkscape:cy="261.93941"
     inkscape:document-units="px"
     inkscape:current-layer="layer1"
     showgrid="false"
     inkscape:showpageshadow="false"
     inkscape:window-width="1920"
     inkscape:window-height="1147"
     inkscape:window-x="0"
     inkscape:window-y="0"
     inkscape:window-maximized="1"
     units="px" />
  <metadata
     id="metadata7">
    <rdf:RDF>
      <cc:Work
         rdf:about="">
        <dc:format>image/svg+xml</dc:format>
        <dc:type
           rdf:resource="http://purl.org/dc/dcmitype/StillImage" />
        <dc:title />
      </cc:Work>
    </rdf:RDF>
  </metadata>
  <g
     inkscape:label="Layer 1"
     inkscape:groupmode="layer"
     id="layer1"
     transform="translate(0,-302.36219)">
    <g
       style="fill:none"
       id="g4307"
       transform="matrix(2.4525781,0,0,2.4525781,54.869849,302.36142)">
      <path
         d="m 24.8457,63.071 5e-4,-3e-4 105.6558,-61.9114 129.554,75.891 0,123.7887 c 0,17.286 -9.089,33.255 -23.846,41.891 l 0,0 -105.708,61.912 -129.50197,-75.891 0,-123.735 c 0,-17.3403 9.08897,-33.3091 23.84567,-41.945 z"
         id="Vector"
         inkscape:connector-curvature="0"
         style="fill:#215cff;stroke:#215cff;stroke-width:2" />
    </g>
    <g
       style="font-style:normal;font-weight:normal;font-size:116.38305664px;line-height:125%;font-family:sans-serif;letter-spacing:0px;word-spacing:0px;fill:#000000;fill-opacity:1;stroke:none;stroke-width:1px;stroke-linecap:butt;stroke-linejoin:miter;stroke-opacity:1"
       id="text4160">
      <path
         d="m 207.2652,769.01385 q -2.61862,0 -4.71352,-1.83303 -1.83303,-2.09489 -1.83303,-4.71351 l 0,-28.80481 -81.17718,0 q -2.61862,0 -4.71352,-1.83303 -1.83303,-2.0949 -1.83303,-4.71352 l 0,-26.44805 q 0,-3.92792 2.88048,-7.85585 l 75.93995,-102.64986 q 3.66606,-4.45165 9.68889,-4.45165 l 39.803,0 q 2.88048,0 4.71351,1.83303 2.0949,1.83304 2.0949,4.71352 l 0,100.81682 23.04384,0 q 3.14235,0 4.97538,2.0949 1.83303,1.83303 1.83303,4.45165 l 0,27.49549 q 0,2.61862 -1.83303,4.71352 -1.83303,1.83303 -4.71351,1.83303 l -23.30571,0 0,28.80481 q 0,2.88048 -2.0949,4.71351 -1.83303,1.83303 -4.71351,1.83303 l -34.04204,0 z m -47.65886,-74.10691 42.15976,0 0,-58.91892 -42.15976,58.91892 z"
         style="font-style:normal;font-variant:normal;font-weight:bold;font-stretch:normal;font-size:261.86187744px;font-family:Rubik;-inkscape-font-specification:'Rubik Bold';fill:#ffffff"
         id="path4165" />
      <path
         d="m 374.98773,771.63247 q -36.13694,-0.26186 -54.99099,-19.11591 -18.85406,-18.85406 -20.68709,-49.75376 -0.52372,-14.14054 -0.52372,-25.4006 0,-11.52192 0.52372,-26.18619 1.04745,-19.63964 9.68889,-34.82763 8.9033,-15.44985 25.4006,-24.35315 16.75916,-8.90331 40.58859,-8.90331 23.82943,0 40.58859,8.90331 16.75916,8.9033 25.40061,24.35315 8.9033,15.18799 9.95075,34.82763 0.52372,7.33213 0.52372,26.18619 0,18.33033 -0.52372,25.4006 -1.83304,30.8997 -20.68709,49.75376 -18.85406,18.85405 -55.25286,19.11591 z m 0,-39.54114 q 12.30751,0 18.33033,-7.85586 6.02283,-8.11771 6.54655,-22.78198 0.52373,-7.59399 0.52373,-24.61502 0,-17.02102 -0.52373,-24.09129 -0.52372,-14.14054 -6.54655,-22.25826 -6.02282,-8.37958 -18.33033,-8.37958 -23.56757,0 -24.87688,30.63784 -0.26186,7.07027 -0.26186,24.09129 0,17.02103 0.26186,24.61502 1.30931,30.63784 24.87688,30.63784 z"
         style="font-style:normal;font-variant:normal;font-weight:bold;font-stretch:normal;font-size:261.86187744px;font-family:Rubik;-inkscape-font-specification:'Rubik Bold';fill:#ffffff"
         id="path4167" />
      <path
         d="m 566.30237,769.01385 q -2.61862,0 -4.71352,-1.83303 -1.83303,-2.09489 -1.83303,-4.71351 l 0,-28.80481 -81.17718,0 q -2.61862,0 -4.71352,-1.83303 -1.83303,-2.0949 -1.83303,-4.71352 l 0,-26.44805 q 0,-3.92792 2.88048,-7.85585 l 75.93995,-102.64986 q 3.66606,-4.45165 9.68889,-4.45165 l 39.803,0 q 2.88048,0 4.71352,1.83303 2.09489,1.83304 2.09489,4.71352 l 0,100.81682 23.04385,0 q 3.14234,0 4.97537,2.0949 1.83303,1.83303 1.83303,4.45165 l 0,27.49549 q 0,2.61862 -1.83303,4.71352 -1.83303,1.83303 -4.71351,1.83303 l -23.30571,0 0,28.80481 q 0,2.88048 -2.09489,4.71351 -1.83304,1.83303 -4.71352,1.83303 l -34.04204,0 z m -47.65886,-74.10691 42.15976,0 0,-58.91892 -42.15976,58.91892 z"
         style="font-style:normal;font-variant:normal;font-weight:bold;font-stretch:normal;font-size:261.86187744px;font-family:Rubik;-inkscape-font-specification:'Rubik Bold';fill:#ffffff"
         id="path4169" />
    </g>
  </g>
</svg>
